<svg xmlns="http://www.w3.org/2000/svg" width="28" height="28" style="padding:4;" viewBox="0 0 28 28" fill="none" stroke="currentColor" stroke-width="2" stroke-linecap="round" stroke-linejoin="round" class="lucide lucide-arrow-big-right-icon lucide-arrow-big-right"><path d="M12.833 10.5a1.167 1.167 0 0 0 1.167 -1.167V5.905a1.167 1.167 0 0 1 2.113 -0.875l7.975 7.975a1.408 1.408 0 0 1 0 1.992l-7.975 7.974a1.167 1.167 0 0 1 -2.113 -0.875V18.667a1.167 1.167 0 0 0 -1.167 -1.167H5.833a1.167 1.167 0 0 1 -1.167 -1.167v-4.667a1.167 1.167 0 0 1 1.167 -1.167z"/></svg>