<svg xmlns="http://www.w3.org/2000/svg" width="28" height="28" style="padding:4;" viewBox="0 0 28 28" fill="none" stroke="currentColor" stroke-width="2" stroke-linecap="round" stroke-linejoin="round" class="lucide lucide-network-icon lucide-network"><path x="16" y="16" width="6" height="6" rx="1" d="M19.833 18.667H24.5A1.167 1.167 0 0 1 25.667 19.833V24.5A1.167 1.167 0 0 1 24.5 25.667H19.833A1.167 1.167 0 0 1 18.667 24.5V19.833A1.167 1.167 0 0 1 19.833 18.667z"/><path x="2" y="16" width="6" height="6" rx="1" d="M3.5 18.667H8.167A1.167 1.167 0 0 1 9.333 19.833V24.5A1.167 1.167 0 0 1 8.167 25.667H3.5A1.167 1.167 0 0 1 2.333 24.5V19.833A1.167 1.167 0 0 1 3.5 18.667z"/><path x="9" y="2" width="6" height="6" rx="1" d="M11.667 2.333H16.333A1.167 1.167 0 0 1 17.5 3.5V8.167A1.167 1.167 0 0 1 16.333 9.333H11.667A1.167 1.167 0 0 1 10.5 8.167V3.5A1.167 1.167 0 0 1 11.667 2.333z"/><path d="M5.833 18.667v-3.5a1.167 1.167 0 0 1 1.167 -1.167h14a1.167 1.167 0 0 1 1.167 1.167v3.5m-8.167 -4.667V9.333"/></svg>